# xmcd
#
# Track frame offsets:
#	150
#	17550
#	30660
#	49676
#	66812
#	80137
#	93489
#	114968
#	130709
#	146597
#	162050
#	175620
#	188293
#	201265
#	212601
#	226494
#	242640
#	256406
#	270446
#	280058
#	295146
#	310532
#
# Disc length: 4315 seconds
#
# Revision: 1
# Processed by: cddbd v1.5.2PL0 Copyright (c) Steve Scherf et al.
# Submitted via: audiograbber 1.83.01
#
DISCID=2410d916
DTITLE=Dr_Hook_ - The Very Best Of 
DYEAR=1999
DGENRE=
TTITLE0=Sylvia's Mother.
TTITLE1=Cover Of The Rolling Stone.
TTITLE2=Carry Me, Carrie.
TTITLE3=Ballad Of Lucy Jordan.
TTITLE4=Life Ain't Easy
TTITLE5=Roland The Roadie and Gertrude The Groupie
TTITLE6=Queen Of The Silver Dollar
TTITLE7=The Wonderful Soup Stone
TTITLE8=You Ain't Got The Right
TTITLE9=I Got Stoned and I Missed It
TTITLE10=Everybody's Makin' It Big But Me
TTITLE11=Only Sixteen
TTITLE12=The Millionaire
TTITLE13=Sweetest Of All
TTITLE14=If Not You
TTITLE15=More Like The Movies
TTITLE16=A Couple More Years
TTITLE17=A Little Bit More
TTITLE18=You Make My Pants Want To Get Up And Dance
TTITLE19=The Radio
TTITLE20=Jungle to the zoo
TTITLE21=Walk Right In
EXTD=
EXTT0=
EXTT1=
EXTT2=
EXTT3=
EXTT4=
EXTT5=
EXTT6=
EXTT7=
EXTT8=
EXTT9=
EXTT10=
EXTT11=
EXTT12=
EXTT13=
EXTT14=
EXTT15=
EXTT16=
EXTT17=
EXTT18=
EXTT19=
EXTT20=
EXTT21=
PLAYORDER=
